<?xml version="1.0" encoding="UTF-8" standalone="no"?>
<!DOCTYPE svg PUBLIC "-//W3C//DTD SVG 1.1//EN" "http://www.w3.org/Graphics/SVG/1.1/DTD/svg11.dtd">
<svg width="100%" height="100%" viewBox="0 0 127 41" version="1.1" xmlns="http://www.w3.org/2000/svg" xmlns:xlink="http://www.w3.org/1999/xlink" xml:space="preserve" xmlns:serif="http://www.serif.com/" style="fill-rule:evenodd;clip-rule:evenodd;stroke-linejoin:round;stroke-miterlimit:2;">
    <g transform="matrix(1,0,0,1,-1121,-666.281)">
        <path d="M1189,694.662C1189,697.231 1188.71,700.436 1185.05,700.436C1181.29,700.436 1181,697.231 1181,694.662L1181,681L1173,681L1173,696.388C1173,703.357 1177.34,706.702 1185.02,706.702C1192.69,706.702 1197,703.357 1197,696.388L1197,681L1189,681L1189,694.662Z" style="fill:white;fill-rule:nonzero;"/>
        <path d="M1214,694L1214.38,694L1207.05,681L1199,681L1199,706L1206,706L1206,693L1206.53,693L1214.23,706L1221,706L1221,681L1214,681L1214,694Z" style="fill:white;fill-rule:nonzero;"/>
        <path d="M1234.63,700L1232,700L1232,688L1234.07,688C1239.67,688 1240.16,692.274 1240.16,693.858C1240.16,696.218 1239.46,700 1234.63,700ZM1236.57,681L1224,681L1224,706L1235.06,706C1243.82,706 1247.91,701.174 1247.91,693.465C1247.91,687.127 1244.95,681 1236.57,681Z" style="fill:white;fill-rule:nonzero;"/>
        <path d="M1163.34,700.767C1161.23,700.374 1161.84,697.877 1163.35,696.675C1163.97,696.178 1165.55,695.413 1166.74,695.405C1167.5,695.4 1168.1,695.707 1168.19,696.595C1168.43,699.073 1166.46,701.349 1163.34,700.767ZM1161.31,694.606C1161.23,696.389 1161.23,704.096 1157.39,703.755C1154.17,703.469 1154.55,700.637 1152.85,698.935C1151.19,697.277 1149.01,698.017 1148.14,695.421C1147.59,693.757 1148.43,692.288 1151.47,691.937C1153.34,691.72 1155.59,690.499 1157.69,690.507C1158.39,690.509 1159.07,690.649 1159.72,691.007C1161,691.715 1161.37,693.218 1161.31,694.606ZM1153.9,685.205C1154.24,685.199 1154.59,685.239 1154.93,685.329C1156.96,685.857 1155.05,688.893 1154.16,689.697C1152.85,690.885 1150.51,691.079 1150.46,689.115C1150.39,686.661 1152.05,685.243 1153.9,685.205ZM1159.34,684.283C1159.83,684.053 1160.4,683.935 1160.96,683.929C1162.8,683.905 1164.55,685.063 1163.14,687.329C1162.3,688.677 1159.39,690.409 1158.07,688.88C1156.61,687.179 1156.97,685.395 1159.34,684.283ZM1166.55,687.763C1168.97,687.755 1168.83,691.082 1167.4,692.785C1165.58,694.96 1163.67,694.841 1162.38,692.835C1161.22,691.032 1163.84,688.461 1165.45,687.954C1165.86,687.824 1166.23,687.764 1166.55,687.763ZM1158.67,680.369C1151.03,680.369 1145.93,685.86 1145.93,693.536C1145.93,701.21 1151.03,706.702 1158.67,706.702C1166.31,706.702 1171.42,701.21 1171.42,693.536C1171.42,685.86 1166.31,680.369 1158.67,680.369Z" style="fill:rgb(221,31,38);fill-rule:nonzero;"/>
        <g transform="matrix(1,0,0,1,14.5367,-0.0535814)">
            <path d="M1125.54,678.903L1122.09,678.903L1119.04,669.768L1122.16,669.768L1123.83,675.806L1123.87,675.806L1125.55,669.768L1128.6,669.768L1125.54,678.903Z" style="fill:white;fill-rule:nonzero;"/>
        </g>
        <g transform="matrix(1,0,0,1,-0.463337,-0.0535814)">
            <path d="M1129.48,669.768L1132.47,669.768L1132.47,678.903L1129.48,678.903L1129.48,669.768ZM1132.47,668.624L1129.48,668.624L1129.48,666.335L1132.47,666.335L1132.47,668.624Z" style="fill:white;fill-rule:nonzero;"/>
        </g>
        <g transform="matrix(1,0,0,1,-13.4633,-0.0535814)">
            <path d="M1134.51,669.768L1137.42,669.768L1137.42,671.369L1137.45,671.369C1137.89,670.208 1138.91,669.592 1140.2,669.592C1140.43,669.592 1140.67,669.61 1140.9,669.662L1140.9,672.392C1140.52,672.285 1140.16,672.215 1139.76,672.215C1138.28,672.215 1137.5,673.235 1137.5,674.38L1137.5,678.903L1134.51,678.903L1134.51,669.768Z" style="fill:white;fill-rule:nonzero;"/>
        </g>
        <g transform="matrix(1,0,0,1,2.53666,-0.0535814)">
            <path d="M1145.48,677.319C1146.9,677.319 1147.38,676.51 1147.31,674.626C1146.88,674.891 1146.11,674.942 1145.46,675.119C1144.79,675.277 1144.23,675.56 1144.23,676.281C1144.23,677.021 1144.81,677.319 1145.48,677.319ZM1141.61,672.585C1141.66,671.388 1142.22,670.613 1143.03,670.138C1143.84,669.681 1144.9,669.504 1145.93,669.504C1148.1,669.504 1150.2,669.979 1150.2,672.567L1150.2,676.563C1150.2,677.337 1150.2,678.182 1150.55,678.903L1147.54,678.903C1147.43,678.622 1147.4,678.341 1147.36,678.041C1146.59,678.851 1145.44,679.168 1144.35,679.168C1142.61,679.168 1141.23,678.288 1141.23,676.403C1141.23,673.43 1144.47,673.658 1146.55,673.235C1147.06,673.13 1147.34,672.954 1147.34,672.392C1147.34,671.704 1146.52,671.44 1145.9,671.44C1145.07,671.44 1144.54,671.81 1144.4,672.585L1141.61,672.585Z" style="fill:white;fill-rule:nonzero;"/>
        </g>
        <g transform="matrix(1,0,0,1,2.53666,-0.0535814)">
            <rect x="1152.09" y="666.335" width="3" height="12.568" style="fill:white;fill-rule:nonzero;"/>
        </g>
        <path d="M1136,681L1136,689L1129,689L1129,681L1121,681L1121,706L1129,706L1129,697L1136,697L1136,706L1144,706L1144,681L1136,681Z" style="fill:white;fill-rule:nonzero;"/>
    </g>
</svg>
