<?xml version="1.0" encoding="UTF-8" standalone="no"?>
<!DOCTYPE svg PUBLIC "-//W3C//DTD SVG 1.1//EN" "http://www.w3.org/Graphics/SVG/1.1/DTD/svg11.dtd">
<svg width="100%" height="100%" viewBox="0 0 159 51" version="1.1" xmlns="http://www.w3.org/2000/svg" xmlns:xlink="http://www.w3.org/1999/xlink" xml:space="preserve" xmlns:serif="http://www.serif.com/" style="fill-rule:evenodd;clip-rule:evenodd;stroke-linejoin:round;stroke-miterlimit:2;">
    <g transform="matrix(1,0,0,1,-710,-309.29)">
        <g>
            <path d="M794,344.698C794,347.91 794.143,351.915 789.566,351.915C784.857,351.915 785,347.91 785,344.698L785,328L775,328L775,346.854C775,355.567 779.929,359.748 789.522,359.748C799.115,359.748 804,355.567 804,346.854L804,328L794,328L794,344.698Z" style="fill:rgb(69,79,85);fill-rule:nonzero;"/>
            <path d="M826,344L826.102,344L816.948,328L807,328L807,359L816,359L816,342L816.288,342L825.925,359L835,359L835,328L826,328L826,344Z" style="fill:rgb(69,79,85);fill-rule:nonzero;"/>
            <path d="M851.425,351L848,351L848,336L850.721,336C857.718,336 858.334,341.344 858.334,343.323C858.334,346.272 857.453,351 851.425,351ZM853.845,328L838,328L838,359L851.952,359C862.91,359 868.015,353.093 868.015,343.456C868.015,335.534 864.318,328 853.845,328Z" style="fill:rgb(69,79,85);fill-rule:nonzero;"/>
            <path d="M762.301,352.329C759.669,351.838 760.436,348.717 762.316,347.214C763.093,346.593 765.066,345.637 766.552,345.627C767.504,345.622 768.256,346.004 768.364,347.114C768.663,350.212 766.202,353.057 762.301,352.329ZM759.767,344.628C759.664,346.856 759.667,356.491 754.865,356.063C750.842,355.706 751.32,352.166 749.193,350.039C747.121,347.966 744.393,348.892 743.311,345.646C742.618,343.567 743.669,341.731 747.465,341.292C749.811,341.021 752.615,339.494 755.239,339.504C756.114,339.507 756.969,339.682 757.78,340.129C759.381,341.013 759.847,342.892 759.767,344.628ZM750.505,332.877C750.933,332.869 751.368,332.92 751.8,333.031C754.333,333.692 751.941,337.486 750.833,338.493C749.199,339.977 746.264,340.218 746.201,337.765C746.122,334.696 748.197,332.923 750.505,332.877ZM757.302,331.725C757.917,331.437 758.63,331.29 759.333,331.281C761.631,331.252 763.814,332.699 762.053,335.531C761.004,337.216 757.368,339.382 755.725,337.47C753.896,335.343 754.342,333.113 757.302,331.725ZM766.321,336.074C769.347,336.064 769.171,340.223 767.387,342.351C765.107,345.071 762.72,344.921 761.11,342.415C759.662,340.161 762.928,336.946 764.943,336.313C765.461,336.15 765.919,336.075 766.321,336.074ZM756.47,326.832C746.92,326.832 740.539,333.696 740.539,343.29C740.539,352.883 746.92,359.748 756.47,359.748C766.019,359.748 772.4,352.883 772.4,343.29C772.4,333.696 766.019,326.832 756.47,326.832Z" style="fill:rgb(221,31,38);fill-rule:nonzero;"/>
            <g transform="matrix(1,0,0,1,17.7481,0)">
                <path d="M715.053,325L710.74,325L706.934,313.581L710.828,313.581L712.919,321.127L712.963,321.127L715.075,313.581L718.882,313.581L715.053,325Z" style="fill:rgb(69,79,85);fill-rule:nonzero;"/>
            </g>
            <g transform="matrix(1,0,0,1,-0.251855,0)">
                <path d="M719.979,313.581L723.721,313.581L723.721,325L719.979,325L719.979,313.581ZM723.721,312.15L719.979,312.15L719.979,309.29L723.721,309.29L723.721,312.15Z" style="fill:rgb(69,79,85);fill-rule:nonzero;"/>
            </g>
            <g transform="matrix(1,0,0,1,-16.2519,0)">
                <path d="M726.271,313.581L729.902,313.581L729.902,315.583L729.946,315.583C730.496,314.13 731.772,313.36 733.379,313.36C733.665,313.36 733.973,313.382 734.259,313.448L734.259,316.859C733.775,316.727 733.335,316.639 732.829,316.639C730.98,316.639 730.013,317.915 730.013,319.345L730.013,325L726.271,325L726.271,313.581Z" style="fill:rgb(69,79,85);fill-rule:nonzero;"/>
            </g>
            <g transform="matrix(1,0,0,1,1.74815,0)">
                <path d="M739.978,323.02C741.76,323.02 742.354,322.008 742.267,319.653C741.738,319.983 740.771,320.049 739.956,320.27C739.12,320.467 738.416,320.819 738.416,321.722C738.416,322.646 739.142,323.02 739.978,323.02ZM735.138,317.101C735.203,315.604 735.907,314.637 736.92,314.042C737.932,313.47 739.252,313.25 740.55,313.25C743.257,313.25 745.875,313.844 745.875,317.079L745.875,322.074C745.875,323.042 745.875,324.098 746.314,325L742.553,325C742.42,324.648 742.376,324.296 742.332,323.922C741.364,324.934 739.934,325.33 738.569,325.33C736.392,325.33 734.675,324.23 734.675,321.875C734.675,318.157 738.724,318.443 741.32,317.915C741.958,317.783 742.311,317.563 742.311,316.859C742.311,316 741.276,315.671 740.506,315.671C739.472,315.671 738.812,316.133 738.636,317.101L735.138,317.101Z" style="fill:rgb(69,79,85);fill-rule:nonzero;"/>
            </g>
            <g transform="matrix(1,0,0,1,1.74815,0)">
                <rect x="748.249" y="309.29" width="3.741" height="15.71" style="fill:rgb(69,79,85);fill-rule:nonzero;"/>
            </g>
            <path d="M728,328L728,338L720,338L720,328L710,328L710,359L720,359L720,347L728,347L728,359L738,359L738,328L728,328Z" style="fill:rgb(69,79,85);fill-rule:nonzero;"/>
        </g>
    </g>
</svg>
